PathFileType	4	(X/Y/Z)	D:\TRACE\spot_10-12-23\spot_arm_motion_2_5-v60.trc
DataRate	CameraRate	NumFrames	NumMarkers	Units	OrigDataRate	OrigDataStartFrame	OrigNumFrames
100.00	100.00	      39	9	mm	100.00	4376	      7000
Frame#	Time	front left toe			Front right toe			aft left toe			aft right toe			Arm			FL body			FR body			AL Body			AR Body			
		X1	Y1	Z1	X2	Y2	Z2	X3	Y3	Z3	X4	Y4	Z4	X5	Y5	Z5	X6	Y6	Z6	X7	Y7	Z7	X8	Y8	Z8	X9	Y9	Z9	

4376	43.750	-198.44870	23.68838	9.40741	299.83566	25.07236	23.23899	-197.62029	-24.23829	604.65204	276.58997	-29.00711	613.43817	50.17379	741.47552	-724.10004	-29.49521	539.60297	-48.04081	123.48162	539.93665	-47.29276	-38.02771	535.50446	835.94049	112.79624	529.99982	839.54248	
4377	43.760	-198.71600	23.76867	9.71476	299.55402	25.14399	23.35770	-197.77956	-24.69063	604.69110	276.31561	-29.84286	613.71033	50.42186	741.42761	-723.66040	-28.91437	540.13824	-47.64421	124.02551	540.49298	-46.90637	-36.95485	534.29858	836.31036	113.68500	528.75110	839.88306	
4378	43.770	-199.14203	23.89426	9.97178	299.31168	25.13274	23.54553	-198.08215	-25.36439	604.86908	275.90598	-30.85234	613.58014	50.67772	741.27478	-723.10168	-28.35079	540.49469	-47.12563	124.60715	541.07739	-46.49235	-36.02070	532.88788	836.85468	115.04668	528.05060	840.93433	
4379	43.780	-199.33397	23.88792	10.15400	299.19705	25.08570	23.87263	-198.32042	-26.06032	604.96790	275.65567	-31.52394	613.79993	50.99390	740.87286	-722.43085	-27.58021	541.12476	-46.68663	125.47440	541.52411	-45.96853	-35.69442	531.79016	836.76239	114.90788	526.40051	840.18500	
4380	43.790	-199.41832	23.84855	10.23941	298.75494	24.84658	23.95810	-198.58398	-26.50425	605.03534	275.52551	-32.05283	614.07764	51.14674	740.67017	-722.02338	-26.98946	541.49207	-46.40506	125.81424	542.15259	-45.75206	-34.59052	530.57086	837.58392	115.81377	525.27258	840.95282	
4381	43.800	-199.56328	23.94490	10.31507	298.53986	24.78536	24.20377	-198.71825	-26.92222	605.14941	275.01706	-32.77970	614.17816	51.51844	740.26990	-721.34259	-26.43615	541.92426	-46.08069	126.53276	542.93951	-45.28307	-34.07595	529.15179	837.81274	116.54261	524.34943	841.30170	
4382	43.810	-199.75156	24.09547	10.33344	298.03772	24.95087	24.23969	-198.95480	-27.47040	605.18921	274.78198	-33.40897	614.12061	51.63713	739.94366	-720.62396	-25.57710	542.29065	-45.69215	127.04435	543.43146	-45.00591	-33.93607	528.23151	837.99725	116.62060	523.19775	841.30768	
4383	43.820	-200.29187	24.33998	10.35536	297.97223	24.72162	24.61143	-199.31198	-27.73058	605.30414	274.39056	-33.90815	614.17120	51.99395	739.53607	-720.32886	-25.03189	542.64520	-45.34834	128.06648	543.96753	-44.25303	-33.38686	527.07178	838.15234	117.25420	522.40906	841.95990	
4384	43.830	-200.76599	24.52141	10.46741	297.44092	24.77090	24.50347	-199.72804	-28.08193	605.40271	274.13647	-34.39044	614.38129	52.72506	739.15900	-719.67462	-24.39918	543.04865	-45.06379	128.58009	544.52167	-44.18966	-32.74720	525.77509	838.78894	117.78144	521.27618	841.87878	
4385	43.840	-201.14906	24.62249	10.49787	297.68436	24.73642	24.72828	-200.15878	-28.46334	605.65546	273.88492	-34.85553	614.67267	53.13905	739.10870	-719.13434	-23.82665	543.21362	-44.64818	129.01213	544.74731	-43.96507	-32.56722	524.89221	838.74780	118.23792	520.48950	842.61255	
4386	43.850	-201.50720	24.71564	10.63708	297.01694	24.39839	24.81981	-200.60933	-28.95635	605.77765	273.42877	-35.24839	614.88641	53.50296	739.10046	-718.90344	-23.06955	543.36780	-44.22734	129.57358	545.38770	-43.52106	-32.20124	523.56311	839.28235	118.69180	519.52972	843.03223	
4387	43.860	-201.74605	24.70446	10.72229	296.71048	24.31012	25.05952	-201.12312	-29.18691	605.73456	272.81979	-35.77490	614.92047	53.82363	739.24194	-718.78046	-22.67788	543.56134	-44.09614	129.94756	546.05511	-43.06871	-31.97668	522.52997	839.61761	118.83915	518.63440	842.91577	
4388	43.870	-202.17075	24.79234	10.80844	296.19482	24.17637	25.30072	-201.47408	-29.43340	605.86249	272.25720	-36.20871	614.97064	54.46017	739.61285	-718.29974	-22.10064	543.86871	-43.94492	130.75937	546.04919	-42.86547	-31.91775	521.60608	839.86823	119.06762	517.83606	843.44922	
4389	43.880	-202.68439	24.93629	10.86816	295.72043	24.01698	25.43386	-201.73476	-29.64988	605.90417	272.17041	-36.40026	615.26221	54.69441	740.21631	-717.94775	-21.73070	544.08997	-43.60098	131.18179	546.50891	-42.48148	-31.82689	520.40240	839.71594	119.32324	516.95245	843.65540	
4390	43.890	-202.96442	25.00375	10.96024	295.28345	24.02745	25.43233	-202.10014	-30.06063	606.01959	271.71237	-36.76099	615.30573	55.30947	741.28552	-717.53717	-21.09489	544.12335	-43.17809	131.56403	547.09827	-42.16106	-31.38475	519.34412	840.34277	119.50342	516.06213	843.92377	
4391	43.900	-203.35329	24.91192	10.98764	294.82825	23.94811	25.25766	-202.72058	-30.29591	606.08630	271.08200	-37.36770	615.22797	55.72564	742.20911	-717.21710	-20.69034	544.33081	-42.87659	132.11380	547.47772	-41.47623	-31.47864	517.99030	840.21997	119.47017	514.98309	843.85681	
4392	43.910	-203.92380	24.92994	11.12706	294.19696	24.45802	24.86816	-203.12454	-30.50746	606.13434	270.58749	-37.59681	615.38348	55.86454	743.83850	-716.88196	-20.40687	544.51666	-42.70364	132.52016	547.67255	-41.21003	-31.03624	517.14240	840.90942	119.86188	514.38782	844.62463	
4393	43.920	-204.52667	25.07017	11.24605	294.45071	24.86917	25.63898	-203.69760	-30.61856	606.19958	269.95233	-37.84238	615.47534	56.18152	745.67267	-716.50446	-20.14046	544.55341	-42.56478	132.83461	547.95880	-41.17709	-31.09863	515.74780	840.76202	119.85054	513.25928	844.75763	
4394	43.930	-204.98909	25.14615	11.25475	294.15179	24.44882	25.73571	-204.27936	-30.67241	606.28662	269.48853	-38.01460	615.60809	56.42213	747.66760	-716.05029	-19.80682	544.56781	-42.38280	133.23772	548.34943	-40.82733	-31.04467	514.87469	841.23138	119.98292	512.24384	845.07800	
4395	43.940	-205.25458	25.04994	11.30937	294.04681	24.70230	25.99009	-204.85289	-30.65049	606.33624	268.92062	-38.15046	615.70068	56.64359	749.91724	-715.28046	-19.38351	544.64996	-42.03328	133.60378	548.72980	-40.58285	-30.99037	513.50000	841.14752	120.24619	511.61511	845.36505	
4396	43.950	-205.77054	25.04660	11.31592	293.19022	24.47901	25.93055	-205.42497	-30.68987	606.44415	268.42938	-38.19212	615.80396	57.12595	752.57568	-714.93127	-19.21789	544.86780	-41.83959	133.77890	548.97754	-40.34904	-31.04019	512.54584	841.54578	119.88844	510.29968	845.09381	
4397	43.960	-206.61935	25.32178	11.28229	292.56317	24.57235	25.77238	-205.85233	-30.82748	606.51489	267.67773	-38.34149	615.79547	57.36242	755.62964	-714.31274	-19.01621	545.17273	-41.57032	133.88513	549.41687	-40.07358	-30.99316	511.06293	841.48322	120.25424	509.49307	845.59613	
4398	43.970	-207.26117	25.57866	11.22894	291.82635	24.46214	25.86080	-206.44762	-30.84641	606.50122	267.17703	-38.48261	615.88312	57.78989	758.63196	-713.97461	-18.77893	545.46625	-41.42013	133.97072	549.75146	-39.81030	-30.97428	510.27231	841.83215	119.78024	508.40839	845.43060	
4399	43.980	-207.76799	25.56824	11.13874	291.83505	24.63463	26.07743	-207.05525	-30.69287	606.60992	266.76962	-38.52457	616.05499	57.57817	762.27313	-713.25677	-18.65900	545.83032	-41.23295	134.11320	550.07416	-39.28165	-31.06938	508.76813	841.85248	120.04134	507.34280	845.87579	
4400	43.990	-208.27327	25.55740	11.17480	290.76740	24.40993	26.21147	-207.78526	-30.47668	606.73383	266.06302	-38.54172	616.07556	57.71656	765.92761	-712.59900	-18.53238	546.11395	-41.08211	134.38615	550.63525	-39.22094	-31.07585	507.97046	842.12390	119.85915	506.23752	845.83960	
4401	44.000	-209.19690	25.73973	11.13809	289.96539	24.18455	26.23677	-208.32677	-30.52001	606.67603	265.08356	-38.62914	616.02216	57.59953	769.69348	-711.93903	-18.57708	546.37390	-40.85027	134.35089	551.22382	-39.15768	-31.22182	506.42145	842.10559	119.72399	505.12518	845.87555	
4402	44.010	-209.57228	25.57770	11.21576	289.71594	24.57313	26.22809	-209.03526	-30.59122	606.69604	264.60535	-38.44844	616.11957	57.61013	773.73602	-711.16803	-18.57170	546.79114	-40.62411	134.18356	551.76752	-38.88495	-31.20658	505.51218	842.33374	119.93897	504.13956	846.46661	
4403	44.020	-210.13472	25.58996	11.31363	287.96359	23.43783	25.91915	-209.87277	-30.37834	606.78180	263.97040	-38.45124	616.12469	57.71502	777.71741	-710.24097	-18.53104	547.67273	-40.51587	134.01828	552.31555	-38.76609	-31.37590	504.30438	842.64893	119.61700	502.75046	846.12787	
4404	44.030	-211.23549	25.83186	11.22924	286.95480	23.76196	25.81660	-210.59291	-30.22042	606.85437	263.11896	-38.42290	616.09998	57.55106	781.83179	-709.43408	-18.65401	548.21967	-40.42057	134.30418	552.99066	-38.45546	-31.56140	503.20972	842.66388	119.49834	501.75568	846.30115	
4405	44.040	-211.93266	25.89929	10.99668	287.82999	24.91433	26.11763	-211.10582	-30.14284	606.83588	262.30716	-38.45581	616.29517	57.34481	785.87622	-708.77234	-18.88264	548.74261	-40.21511	134.12944	553.65845	-38.15797	-31.51928	501.95630	842.83588	119.45863	500.66318	846.55756	
4406	44.050	-212.48103	25.79749	10.90330	287.06445	24.43929	26.00824	-212.03816	-29.80988	606.82593	261.60886	-38.30065	616.37494	57.05654	789.66052	-707.81885	-19.02752	549.25177	-39.94456	133.96603	554.14612	-38.07865	-32.15248	501.21060	842.19366	119.30276	499.51816	846.46466	
4407	44.060	-213.44649	25.92551	10.83634	286.09488	24.41698	26.02527	-212.67386	-29.68631	606.83771	260.87778	-37.95613	616.25470	56.81529	793.39142	-707.02032	-19.04180	550.03625	-39.74393	133.81715	554.64667	-37.77262	-31.70028	499.62085	842.80951	118.99452	498.44699	846.53558	
4408	44.070	-213.97939	25.87420	10.82842	284.77905	24.22925	26.03829	-213.42393	-29.39544	606.92883	260.13577	-37.81319	616.38831	56.34806	796.99133	-706.36414	-19.13345	550.76440	-39.54118	133.78618	555.41162	-37.64356	-32.22360	499.10861	842.51996	119.19362	497.55774	846.99982	
4409	44.080	-214.66158	25.91754	10.83485	284.76398	24.11277	25.87839	-214.18230	-28.92390	606.98810	259.30655	-37.61060	616.35468	56.10091	800.21411	-705.46826	-19.51925	551.22620	-39.49464	133.76418	556.10107	-37.41234	-32.19294	497.83929	842.78967	118.56271	496.39172	846.61926	
4410	44.090	-215.83105	26.09604	10.66718	282.72293	23.05846	25.63289	-214.87816	-28.58697	606.97870	258.47379	-37.38675	616.30518	55.95835	803.16980	-704.88391	-19.70551	551.83636	-39.32948	133.35725	556.52319	-37.36826	-32.47312	497.16779	842.75092	118.61929	495.70486	847.15234	
4411	44.100	-216.55302	26.14919	10.41599	281.73050	22.98380	25.48739	-215.69586	-28.21079	607.04327	257.63763	-36.88464	616.29694	56.01686	805.73981	-704.26178	-19.95370	552.67145	-39.17611	132.85864	557.12781	-37.32664	-32.53581	496.19308	842.88123	118.25266	494.68546	846.57947	
4412	44.110	-217.16890	25.97476	10.23781	280.90500	22.78696	25.11379	-216.58221	-27.71298	607.05011	256.60147	-36.69389	616.27374	55.40010	808.04712	-703.81049	-20.13707	553.34583	-39.07953	132.62090	557.86908	-37.20467	-32.39278	495.16489	842.30713	117.83121	494.03635	847.18170	
4413	44.120	-218.17120	26.14755	10.20002	280.18719	23.07982	25.35998	-217.71463	-27.05894	606.99219	255.94838	-36.21342	616.13043	54.91539	810.06262	-703.15363	-20.57150	553.87463	-39.00104	132.22368	558.55310	-37.18704	-33.05144	494.63840	842.76190	117.65571	493.25946	846.78461	
4414	44.130	-219.04886	26.13024	10.17936	279.04987	22.91322	25.07050	-218.40109	-26.69614	606.99384	254.81674	-35.93257	616.15375	54.51967	811.69678	-702.43597	-21.11117	554.54327	-38.93769	131.74487	559.34167	-37.09309	-33.29720	493.95319	842.98053	117.33930	492.47861	846.77344	
